<mxfile host="app.diagrams.net" agent="Mozilla/5.0 (Windows NT 10.0; Win64; x64) AppleWebKit/537.36 (KHTML, like Gecko) Chrome/118.0.0.0 Safari/537.36" version="27.2.0">
  <diagram name="第 1 页" id="O66boy2h5BRPfjRVDl7a">
    <mxGraphModel dx="996" dy="358" grid="1" gridSize="10" guides="1" tooltips="1" connect="1" arrows="1" fold="1" page="1" pageScale="1" pageWidth="827" pageHeight="1169" math="0" shadow="0">
      <root>
        <mxCell id="0" />
        <mxCell id="1" parent="0" />
        <mxCell id="Kdo3wjxSiek9sDMraKjE-1" value="" style="ellipse;whiteSpace=wrap;html=1;aspect=fixed;fillColor=#FFFFFF;" parent="1" vertex="1">
          <mxGeometry x="180" y="110" width="60" height="60" as="geometry" />
        </mxCell>
        <mxCell id="Kdo3wjxSiek9sDMraKjE-2" value="&lt;pre style=&quot;font-family: var(--ds-font-family-code); overflow: auto; padding: calc(var(--ds-md-zoom)*8px)calc(var(--ds-md-zoom)*12px); text-wrap: wrap; word-break: break-all; color: rgb(73, 73, 73); font-size: 12.573px; text-align: start; margin-top: 0px !important; margin-bottom: 0px !important;&quot;&gt;&lt;b&gt;开始&lt;/b&gt;&lt;/pre&gt;" style="text;strokeColor=none;align=center;fillColor=none;html=1;verticalAlign=middle;whiteSpace=wrap;rounded=0;" parent="1" vertex="1">
          <mxGeometry x="190" y="130" width="40" height="20" as="geometry" />
        </mxCell>
        <mxCell id="Kdo3wjxSiek9sDMraKjE-5" value="" style="ellipse;whiteSpace=wrap;html=1;aspect=fixed;fillColor=#FFFFFF;" parent="1" vertex="1">
          <mxGeometry x="180" y="240" width="60" height="60" as="geometry" />
        </mxCell>
        <mxCell id="Kdo3wjxSiek9sDMraKjE-6" value="&lt;pre style=&quot;font-family: var(--ds-font-family-code); overflow: auto; padding: calc(var(--ds-md-zoom)*8px)calc(var(--ds-md-zoom)*12px); text-wrap: wrap; word-break: break-all; color: rgb(73, 73, 73); font-size: 12.573px; text-align: start; margin-top: 0px !important; margin-bottom: 0px !important;&quot;&gt;&lt;b&gt;无锁状态&lt;/b&gt;&lt;/pre&gt;" style="text;strokeColor=none;align=center;fillColor=none;html=1;verticalAlign=middle;whiteSpace=wrap;rounded=0;" parent="1" vertex="1">
          <mxGeometry x="180" y="255" width="60" height="30" as="geometry" />
        </mxCell>
        <mxCell id="Kdo3wjxSiek9sDMraKjE-7" value="" style="ellipse;whiteSpace=wrap;html=1;aspect=fixed;fillColor=#FFFFCC;" parent="1" vertex="1">
          <mxGeometry x="180" y="370" width="60" height="60" as="geometry" />
        </mxCell>
        <mxCell id="Kdo3wjxSiek9sDMraKjE-8" value="&lt;pre style=&quot;font-family: var(--ds-font-family-code); overflow: auto; padding: calc(var(--ds-md-zoom)*8px)calc(var(--ds-md-zoom)*12px); text-wrap: wrap; word-break: break-all; color: rgb(73, 73, 73); font-size: 12.573px; text-align: start; margin-top: 0px !important; margin-bottom: 0px !important;&quot;&gt;&lt;b&gt;偏向锁&lt;/b&gt;&lt;/pre&gt;" style="text;strokeColor=none;align=center;fillColor=none;html=1;verticalAlign=middle;whiteSpace=wrap;rounded=0;" parent="1" vertex="1">
          <mxGeometry x="180" y="385" width="60" height="30" as="geometry" />
        </mxCell>
        <mxCell id="Kdo3wjxSiek9sDMraKjE-14" value="&lt;pre style=&quot;font-family: var(--ds-font-family-code); overflow: auto; padding: calc(var(--ds-md-zoom)*8px)calc(var(--ds-md-zoom)*12px); text-wrap: wrap; word-break: break-all; color: rgb(73, 73, 73); font-size: 12.573px; text-align: start; margin-top: 0px !important; margin-bottom: 0px !important;&quot;&gt;&lt;b&gt;第一次访问&lt;/b&gt;&lt;/pre&gt;" style="text;strokeColor=none;align=center;fillColor=none;html=1;verticalAlign=middle;whiteSpace=wrap;rounded=0;" parent="1" vertex="1">
          <mxGeometry x="140" y="320" width="70" height="30" as="geometry" />
        </mxCell>
        <mxCell id="Kdo3wjxSiek9sDMraKjE-15" value="" style="ellipse;whiteSpace=wrap;html=1;aspect=fixed;fillColor=#FFFFCC;" parent="1" vertex="1">
          <mxGeometry x="354" y="370" width="60" height="60" as="geometry" />
        </mxCell>
        <mxCell id="Kdo3wjxSiek9sDMraKjE-16" value="" style="endArrow=classic;html=1;rounded=0;" parent="1" edge="1">
          <mxGeometry width="50" height="50" relative="1" as="geometry">
            <mxPoint x="350" y="400" as="sourcePoint" />
            <mxPoint x="240" y="399.5" as="targetPoint" />
          </mxGeometry>
        </mxCell>
        <mxCell id="Kdo3wjxSiek9sDMraKjE-17" value="&lt;pre style=&quot;font-family: var(--ds-font-family-code); overflow: auto; padding: calc(var(--ds-md-zoom)*8px)calc(var(--ds-md-zoom)*12px); text-wrap: wrap; word-break: break-all; color: rgb(73, 73, 73); font-size: 12.573px; text-align: start; margin-top: 0px !important; margin-bottom: 0px !important;&quot;&gt;&lt;b&gt;同一线程再次访问&lt;/b&gt;&lt;/pre&gt;" style="text;strokeColor=none;align=center;fillColor=none;html=1;verticalAlign=middle;whiteSpace=wrap;rounded=0;" parent="1" vertex="1">
          <mxGeometry x="270" y="370" width="60" height="30" as="geometry" />
        </mxCell>
        <mxCell id="Kdo3wjxSiek9sDMraKjE-18" value="" style="ellipse;whiteSpace=wrap;html=1;aspect=fixed;fillColor=#FFFF99;" parent="1" vertex="1">
          <mxGeometry x="180" y="500" width="60" height="60" as="geometry" />
        </mxCell>
        <mxCell id="Kdo3wjxSiek9sDMraKjE-19" value="" style="endArrow=classic;html=1;rounded=0;" parent="1" edge="1">
          <mxGeometry width="50" height="50" relative="1" as="geometry">
            <mxPoint x="210" y="430" as="sourcePoint" />
            <mxPoint x="210" y="500" as="targetPoint" />
          </mxGeometry>
        </mxCell>
        <mxCell id="Kdo3wjxSiek9sDMraKjE-23" value="" style="ellipse;whiteSpace=wrap;html=1;aspect=fixed;fillColor=#CCFF99;" parent="1" vertex="1">
          <mxGeometry x="354" y="500" width="60" height="60" as="geometry" />
        </mxCell>
        <mxCell id="Kdo3wjxSiek9sDMraKjE-24" value="" style="endArrow=classic;html=1;rounded=0;" parent="1" edge="1">
          <mxGeometry width="50" height="50" relative="1" as="geometry">
            <mxPoint x="350" y="530" as="sourcePoint" />
            <mxPoint x="240" y="529.5" as="targetPoint" />
          </mxGeometry>
        </mxCell>
        <mxCell id="Kdo3wjxSiek9sDMraKjE-25" value="&lt;pre style=&quot;font-family: var(--ds-font-family-code); overflow: auto; padding: calc(var(--ds-md-zoom)*8px)calc(var(--ds-md-zoom)*12px); text-wrap: wrap; word-break: break-all; color: rgb(73, 73, 73); font-size: 12.573px; text-align: start; margin-top: 0px !important; margin-bottom: 0px !important;&quot;&gt;&lt;b&gt;轻量级锁&lt;/b&gt;&lt;/pre&gt;" style="text;strokeColor=none;align=center;fillColor=none;html=1;verticalAlign=middle;whiteSpace=wrap;rounded=0;" parent="1" vertex="1">
          <mxGeometry x="180" y="515" width="60" height="30" as="geometry" />
        </mxCell>
        <mxCell id="Kdo3wjxSiek9sDMraKjE-26" value="&lt;pre style=&quot;font-family: var(--ds-font-family-code); overflow: auto; padding: calc(var(--ds-md-zoom)*8px)calc(var(--ds-md-zoom)*12px); text-wrap: wrap; word-break: break-all; color: rgb(73, 73, 73); font-size: 12.573px; margin-top: 0px !important; margin-bottom: 0px !important;&quot;&gt;&lt;b&gt;多线程&lt;/b&gt;&lt;/pre&gt;&lt;pre style=&quot;font-family: var(--ds-font-family-code); overflow: auto; padding: calc(var(--ds-md-zoom)*8px)calc(var(--ds-md-zoom)*12px); text-wrap: wrap; word-break: break-all; color: rgb(73, 73, 73); font-size: 12.573px; margin-top: 0px !important; margin-bottom: 0px !important;&quot;&gt;&lt;b&gt;轻度竞争&lt;/b&gt;&lt;/pre&gt;" style="text;strokeColor=none;align=center;fillColor=none;html=1;verticalAlign=middle;whiteSpace=wrap;rounded=0;" parent="1" vertex="1">
          <mxGeometry x="270" y="500" width="60" height="30" as="geometry" />
        </mxCell>
        <mxCell id="Kdo3wjxSiek9sDMraKjE-28" style="edgeStyle=orthogonalEdgeStyle;rounded=0;orthogonalLoop=1;jettySize=auto;html=1;exitX=0.5;exitY=1;exitDx=0;exitDy=0;" parent="1" source="Kdo3wjxSiek9sDMraKjE-26" target="Kdo3wjxSiek9sDMraKjE-26" edge="1">
          <mxGeometry relative="1" as="geometry" />
        </mxCell>
        <mxCell id="Kdo3wjxSiek9sDMraKjE-29" value="" style="ellipse;whiteSpace=wrap;html=1;aspect=fixed;fillColor=#FFFF00;" parent="1" vertex="1">
          <mxGeometry x="180" y="630" width="60" height="60" as="geometry" />
        </mxCell>
        <mxCell id="Kdo3wjxSiek9sDMraKjE-30" value="" style="endArrow=classic;html=1;rounded=0;" parent="1" edge="1">
          <mxGeometry width="50" height="50" relative="1" as="geometry">
            <mxPoint x="209" y="560" as="sourcePoint" />
            <mxPoint x="209" y="630" as="targetPoint" />
          </mxGeometry>
        </mxCell>
        <mxCell id="Kdo3wjxSiek9sDMraKjE-31" value="&lt;pre style=&quot;font-family: var(--ds-font-family-code); overflow: auto; padding: calc(var(--ds-md-zoom)*8px)calc(var(--ds-md-zoom)*12px); text-wrap: wrap; word-break: break-all; color: rgb(73, 73, 73); font-size: 12.573px; text-align: start; margin-top: 0px !important; margin-bottom: 0px !important;&quot;&gt;&lt;b&gt;重量级锁&lt;/b&gt;&lt;/pre&gt;" style="text;strokeColor=none;align=center;fillColor=none;html=1;verticalAlign=middle;whiteSpace=wrap;rounded=0;" parent="1" vertex="1">
          <mxGeometry x="180" y="645" width="60" height="30" as="geometry" />
        </mxCell>
        <mxCell id="Kdo3wjxSiek9sDMraKjE-34" value="" style="endArrow=classic;html=1;rounded=0;" parent="1" edge="1">
          <mxGeometry width="50" height="50" relative="1" as="geometry">
            <mxPoint x="350" y="660" as="sourcePoint" />
            <mxPoint x="240" y="659.5" as="targetPoint" />
          </mxGeometry>
        </mxCell>
        <mxCell id="Kdo3wjxSiek9sDMraKjE-35" value="" style="ellipse;whiteSpace=wrap;html=1;aspect=fixed;fillColor=#FFCC99;" parent="1" vertex="1">
          <mxGeometry x="354" y="630" width="60" height="60" as="geometry" />
        </mxCell>
        <mxCell id="Kdo3wjxSiek9sDMraKjE-36" value="&lt;pre style=&quot;font-family: var(--ds-font-family-code); overflow: auto; padding: calc(var(--ds-md-zoom)*8px)calc(var(--ds-md-zoom)*12px); text-wrap: wrap; word-break: break-all; color: rgb(73, 73, 73); font-size: 12.573px; margin-top: 0px !important; margin-bottom: 0px !important;&quot;&gt;&lt;b&gt;多线程激烈&lt;/b&gt;&lt;/pre&gt;&lt;pre style=&quot;font-family: var(--ds-font-family-code); overflow: auto; padding: calc(var(--ds-md-zoom)*8px)calc(var(--ds-md-zoom)*12px); text-wrap: wrap; word-break: break-all; color: rgb(73, 73, 73); font-size: 12.573px; margin-top: 0px !important; margin-bottom: 0px !important;&quot;&gt;&lt;b&gt;竞争自旋超时&lt;/b&gt;&lt;/pre&gt;" style="text;strokeColor=none;align=center;fillColor=none;html=1;verticalAlign=middle;whiteSpace=wrap;rounded=0;" parent="1" vertex="1">
          <mxGeometry x="260" y="630" width="80" height="25" as="geometry" />
        </mxCell>
        <mxCell id="Kdo3wjxSiek9sDMraKjE-37" value="" style="endArrow=classic;html=1;rounded=0;" parent="1" edge="1">
          <mxGeometry width="50" height="50" relative="1" as="geometry">
            <mxPoint x="220" y="500" as="sourcePoint" />
            <mxPoint x="220" y="430" as="targetPoint" />
          </mxGeometry>
        </mxCell>
        <mxCell id="Kdo3wjxSiek9sDMraKjE-39" value="&lt;b&gt;撤销偏向&lt;/b&gt;&lt;div&gt;&lt;b&gt;&lt;span style=&quot;background-color: transparent;&quot;&gt;批量重偏向、&lt;/span&gt;&lt;span style=&quot;background-color: transparent;&quot;&gt;偏向锁过期&lt;/span&gt;&lt;/b&gt;&lt;/div&gt;" style="text;strokeColor=none;align=center;fillColor=none;html=1;verticalAlign=middle;whiteSpace=wrap;rounded=0;" parent="1" vertex="1">
          <mxGeometry x="220" y="310" width="136" height="40" as="geometry" />
        </mxCell>
        <mxCell id="Kdo3wjxSiek9sDMraKjE-40" value="" style="endArrow=classic;html=1;rounded=0;" parent="1" edge="1">
          <mxGeometry width="50" height="50" relative="1" as="geometry">
            <mxPoint x="220" y="630" as="sourcePoint" />
            <mxPoint x="220" y="560" as="targetPoint" />
          </mxGeometry>
        </mxCell>
        <mxCell id="Kdo3wjxSiek9sDMraKjE-41" value="&lt;b&gt;锁释放&lt;/b&gt;" style="text;strokeColor=none;align=center;fillColor=none;html=1;verticalAlign=middle;whiteSpace=wrap;rounded=0;" parent="1" vertex="1">
          <mxGeometry x="220" y="590" width="40" height="20" as="geometry" />
        </mxCell>
        <mxCell id="Kdo3wjxSiek9sDMraKjE-42" value="" style="endArrow=classic;html=1;rounded=0;" parent="1" edge="1">
          <mxGeometry width="50" height="50" relative="1" as="geometry">
            <mxPoint x="220" y="370" as="sourcePoint" />
            <mxPoint x="220" y="300" as="targetPoint" />
          </mxGeometry>
        </mxCell>
        <mxCell id="Kdo3wjxSiek9sDMraKjE-43" value="" style="endArrow=classic;html=1;rounded=0;" parent="1" edge="1">
          <mxGeometry width="50" height="50" relative="1" as="geometry">
            <mxPoint x="209.5" y="300" as="sourcePoint" />
            <mxPoint x="209.5" y="370" as="targetPoint" />
          </mxGeometry>
        </mxCell>
        <mxCell id="Kdo3wjxSiek9sDMraKjE-45" value="" style="endArrow=classic;html=1;rounded=0;" parent="1" edge="1">
          <mxGeometry width="50" height="50" relative="1" as="geometry">
            <mxPoint x="210" y="170" as="sourcePoint" />
            <mxPoint x="210" y="240" as="targetPoint" />
          </mxGeometry>
        </mxCell>
        <mxCell id="Kdo3wjxSiek9sDMraKjE-46" value="&lt;b&gt;锁释放&lt;/b&gt;" style="text;strokeColor=none;align=center;fillColor=none;html=1;verticalAlign=middle;whiteSpace=wrap;rounded=0;" parent="1" vertex="1">
          <mxGeometry x="220" y="460" width="40" height="20" as="geometry" />
        </mxCell>
      </root>
    </mxGraphModel>
  </diagram>
</mxfile>
